<?xml version="1.0" encoding="UTF-8" standalone="no"?>
<svg
   xmlns:dc="http://purl.org/dc/elements/1.1/"
   xmlns:cc="http://creativecommons.org/ns#"
   xmlns:rdf="http://www.w3.org/1999/02/22-rdf-syntax-ns#"
   xmlns:svg="http://www.w3.org/2000/svg"
   xmlns="http://www.w3.org/2000/svg"
   xmlns:sodipodi="http://sodipodi.sourceforge.net/DTD/sodipodi-0.dtd"
   xmlns:inkscape="http://www.inkscape.org/namespaces/inkscape"
   width="64pt"
   height="64pt"
   viewBox="0 0 22.577778 22.577778"
   version="1.1"
   id="svg831"
   inkscape:version="1.0 (4035a4fb49, 2020-05-01)"
   sodipodi:docname="13 - Pipeline.svg"
   inkscape:export-filename="E:\Project\27-3-2022\4 - Icon-Icons\017 - Construction And Equipment\Send\13 - Pipeline.png"
   inkscape:export-xdpi="576"
   inkscape:export-ydpi="576">
  <defs
     id="defs825">
    <pattern
       id="EMFhbasepattern"
       patternUnits="userSpaceOnUse"
       width="6"
       height="6"
       x="0"
       y="0" />
    <pattern
       id="EMFhbasepattern-9"
       patternUnits="userSpaceOnUse"
       width="6"
       height="6"
       x="0"
       y="0" />
    <pattern
       id="EMFhbasepattern-0"
       patternUnits="userSpaceOnUse"
       width="6"
       height="6"
       x="0"
       y="0" />
    <pattern
       id="EMFhbasepattern-7"
       patternUnits="userSpaceOnUse"
       width="6"
       height="6"
       x="0"
       y="0" />
    <pattern
       id="EMFhbasepattern-2"
       patternUnits="userSpaceOnUse"
       width="6"
       height="6"
       x="0"
       y="0" />
    <pattern
       id="EMFhbasepattern-98"
       patternUnits="userSpaceOnUse"
       width="6"
       height="6"
       x="0"
       y="0" />
    <pattern
       id="EMFhbasepattern-6"
       patternUnits="userSpaceOnUse"
       width="6"
       height="6"
       x="0"
       y="0" />
    <pattern
       id="EMFhbasepattern-01"
       patternUnits="userSpaceOnUse"
       width="6"
       height="6"
       x="0"
       y="0" />
    <pattern
       id="EMFhbasepattern-07"
       patternUnits="userSpaceOnUse"
       width="6"
       height="6"
       x="0"
       y="0" />
    <pattern
       id="EMFhbasepattern-8"
       patternUnits="userSpaceOnUse"
       width="6"
       height="6"
       x="0"
       y="0" />
    <pattern
       id="EMFhbasepattern-4"
       patternUnits="userSpaceOnUse"
       width="6"
       height="6"
       x="0"
       y="0" />
    <pattern
       id="EMFhbasepattern-40"
       patternUnits="userSpaceOnUse"
       width="6"
       height="6"
       x="0"
       y="0" />
    <pattern
       id="EMFhbasepattern-08"
       patternUnits="userSpaceOnUse"
       width="6"
       height="6"
       x="0"
       y="0" />
    <pattern
       id="EMFhbasepattern-04"
       patternUnits="userSpaceOnUse"
       width="6"
       height="6"
       x="0"
       y="0" />
    <pattern
       id="EMFhbasepattern-014"
       patternUnits="userSpaceOnUse"
       width="6"
       height="6"
       x="0"
       y="0" />
    <pattern
       id="EMFhbasepattern-27"
       patternUnits="userSpaceOnUse"
       width="6"
       height="6"
       x="0"
       y="0" />
    <pattern
       id="EMFhbasepattern-09"
       patternUnits="userSpaceOnUse"
       width="6"
       height="6"
       x="0"
       y="0" />
    <pattern
       id="EMFhbasepattern-5"
       patternUnits="userSpaceOnUse"
       width="6"
       height="6"
       x="0"
       y="0" />
    <pattern
       id="EMFhbasepattern-018"
       patternUnits="userSpaceOnUse"
       width="6"
       height="6"
       x="0"
       y="0" />
  </defs>
  <sodipodi:namedview
     id="base"
     pagecolor="#ffffff"
     bordercolor="#666666"
     borderopacity="1.0"
     inkscape:pageopacity="0.0"
     inkscape:pageshadow="2"
     inkscape:zoom="3.2391839"
     inkscape:cx="42.666667"
     inkscape:cy="42.666667"
     inkscape:document-units="pt"
     inkscape:current-layer="layer1"
     showgrid="false"
     units="pt"
     inkscape:window-width="1366"
     inkscape:window-height="716"
     inkscape:window-x="-8"
     inkscape:window-y="-8"
     inkscape:window-maximized="1"
     inkscape:pagecheckerboard="true"
     inkscape:showpageshadow="false"
     inkscape:object-paths="true"
     inkscape:snap-intersection-paths="true"
     inkscape:snap-smooth-nodes="true"
     inkscape:snap-midpoints="true"
     showguides="true"
     inkscape:snap-bbox="true"
     inkscape:bbox-nodes="true"
     inkscape:snap-nodes="false"
     inkscape:snap-global="true"
     inkscape:lockguides="true"
     inkscape:document-rotation="0">
    <inkscape:grid
       type="xygrid"
       id="grid1378" />
    <sodipodi:guide
       position="0.97013831,21.607643"
       orientation="78.000048,0"
       id="guide1380"
       inkscape:locked="true" />
    <sodipodi:guide
       position="0.97013831,0.97013129"
       orientation="0,78.000005"
       id="guide1382"
       inkscape:locked="true" />
    <sodipodi:guide
       position="21.607639,0.97013129"
       orientation="-78.000048,0"
       id="guide1384"
       inkscape:locked="true" />
    <sodipodi:guide
       position="21.607639,21.607643"
       orientation="0,-78.000005"
       id="guide1386"
       inkscape:locked="true" />
  </sodipodi:namedview>
  <metadata
     id="metadata828">
    <rdf:RDF>
      <cc:Work
         rdf:about="">
        <dc:format>image/svg+xml</dc:format>
        <dc:type
           rdf:resource="http://purl.org/dc/dcmitype/StillImage" />
        <dc:title />
      </cc:Work>
    </rdf:RDF>
  </metadata>
  <g
     inkscape:label="Icon"
     inkscape:groupmode="layer"
     id="layer1"
     transform="translate(0,-274.42223)">
    <g
       transform="matrix(1.2187119,0,0,1.2187119,75.319008,-103.102)"
       style="display:inline;stroke-width:0.820539"
       id="g1388">
      <g
         id="g733"
         style="display:inline;stroke-width:0.820539">
        <path
           id="path1622"
           d="m -50.0625,312.70898 a 0.26460996,0.26460996 0 0 0 -0.263672,0.26368 v 3.32226 c 0,0.18512 -0.144958,0.33008 -0.330078,0.33008 h -3.759766 c -1.339504,0 -2.625228,0.5312 -3.572265,1.47852 -0.947014,0.94701 -1.478516,2.23297 -1.478516,3.57226 v 3.42383 a 0.26460996,0.26460996 0 0 0 0.263672,0.26367 h 4.191406 a 0.26460996,0.26460996 0 0 0 0.265625,-0.26367 v -3.42383 c 0,-0.0875 0.03393,-0.1726 0.0957,-0.23437 0.06177,-0.0618 0.146527,-0.0957 0.234375,-0.0957 h 3.759766 c 2.786188,0 5.050781,-2.26459 5.050781,-5.05078 v -3.32226 a 0.26460996,0.26460996 0 0 0 -0.263672,-0.26368 z"
           style="color:#000000;font-style:normal;font-variant:normal;font-weight:normal;font-stretch:normal;font-size:medium;line-height:normal;font-family:sans-serif;font-variant-ligatures:normal;font-variant-position:normal;font-variant-caps:normal;font-variant-numeric:normal;font-variant-alternates:normal;font-variant-east-asian:normal;font-feature-settings:normal;font-variation-settings:normal;text-indent:0;text-align:start;text-decoration:none;text-decoration-line:none;text-decoration-style:solid;text-decoration-color:#000000;letter-spacing:normal;word-spacing:normal;text-transform:none;writing-mode:lr-tb;direction:ltr;text-orientation:mixed;dominant-baseline:auto;baseline-shift:baseline;text-anchor:start;white-space:normal;shape-padding:0;shape-margin:0;inline-size:0;clip-rule:evenodd;display:inline;overflow:visible;visibility:visible;isolation:auto;mix-blend-mode:normal;color-interpolation:sRGB;color-interpolation-filters:linearRGB;solid-color:#000000;solid-opacity:1;vector-effect:none;fill:#d0e2ee;fill-opacity:1;fill-rule:evenodd;stroke:none;stroke-width:0.434202;stroke-linecap:round;stroke-linejoin:round;stroke-miterlimit:1.55263;stroke-dasharray:none;stroke-dashoffset:0;stroke-opacity:1;color-rendering:auto;image-rendering:auto;shape-rendering:auto;text-rendering:auto;enable-background:accumulate;stop-color:#000000" />
        <path
           id="path694"
           style="color:#000000;font-style:normal;font-variant:normal;font-weight:normal;font-stretch:normal;font-size:medium;line-height:normal;font-family:sans-serif;font-variant-ligatures:normal;font-variant-position:normal;font-variant-caps:normal;font-variant-numeric:normal;font-variant-alternates:normal;font-variant-east-asian:normal;font-feature-settings:normal;font-variation-settings:normal;text-indent:0;text-align:start;text-decoration:none;text-decoration-line:none;text-decoration-style:solid;text-decoration-color:#000000;letter-spacing:normal;word-spacing:normal;text-transform:none;writing-mode:lr-tb;direction:ltr;text-orientation:mixed;dominant-baseline:auto;baseline-shift:baseline;text-anchor:start;white-space:normal;shape-padding:0;shape-margin:0;inline-size:0;clip-rule:evenodd;display:inline;overflow:visible;visibility:visible;isolation:auto;mix-blend-mode:normal;color-interpolation:sRGB;color-interpolation-filters:linearRGB;solid-color:#000000;solid-opacity:1;vector-effect:none;fill:#a8c2e1;fill-opacity:1;fill-rule:evenodd;stroke:none;stroke-width:1.64108;stroke-linecap:round;stroke-linejoin:round;stroke-miterlimit:1.55263;stroke-dasharray:none;stroke-dashoffset:0;stroke-opacity:1;color-rendering:auto;image-rendering:auto;shape-rendering:auto;text-rendering:auto;enable-background:accumulate;stop-color:#000000"
           d="m -189.21289,123.37305 c -0.54921,0.002 -0.99389,0.44688 -0.99609,0.99609 v 5.00391 h 9.94611 a 3.8956785,3.8956785 45 0 1 3.89568,3.89568 v 3.65705 c 0,10.53048 -8.55937,19.08984 -19.08984,19.08984 h 4 c 10.53047,0 19.08984,-8.55936 19.08984,-19.08984 v -12.55664 c -0.002,-0.54921 -0.44688,-0.99389 -0.99609,-0.99609 z m -20.45313,32.64257 c -0.33203,0 -0.65326,0.12776 -0.88671,0.36133 -0.23347,0.23358 -0.36133,0.55601 -0.36133,0.88672 v 4.03987 a 3.8956785,3.8956785 135 0 1 -3.89568,3.89568 h -8.95003 c -0.54921,0.002 -0.99389,0.44688 -0.99609,0.99609 v 5.00391 h 17.8418 v -0.9961 -12.93945 c 0,-0.33071 0.12786,-0.65326 0.36133,-0.88672 0.23346,-0.23357 0.55469,-0.36133 0.88671,-0.36133 z"
           transform="matrix(0.26458334,0,0,0.26458334,0,280.06666)"
           sodipodi:nodetypes="ccccscsscccssscccccccccs" />
        <path
           id="path1644"
           d="m -51.09375,311.33984 c -0.419134,0 -0.765625,0.34454 -0.765625,0.76368 v 0.36914 c 0,0.41913 0.346491,0.76562 0.765625,0.76562 h 6.255859 c 0.419134,0 0.765625,-0.34649 0.765625,-0.76562 v -0.36914 c 0,-0.41914 -0.346491,-0.76368 -0.765625,-0.76368 z"
           style="color:#000000;font-style:normal;font-variant:normal;font-weight:normal;font-stretch:normal;font-size:medium;line-height:normal;font-family:sans-serif;font-variant-ligatures:normal;font-variant-position:normal;font-variant-caps:normal;font-variant-numeric:normal;font-variant-alternates:normal;font-variant-east-asian:normal;font-feature-settings:normal;font-variation-settings:normal;text-indent:0;text-align:start;text-decoration:none;text-decoration-line:none;text-decoration-style:solid;text-decoration-color:#000000;letter-spacing:normal;word-spacing:normal;text-transform:none;writing-mode:lr-tb;direction:ltr;text-orientation:mixed;dominant-baseline:auto;baseline-shift:baseline;text-anchor:start;white-space:normal;shape-padding:0;shape-margin:0;inline-size:0;clip-rule:evenodd;display:inline;overflow:visible;visibility:visible;isolation:auto;mix-blend-mode:normal;color-interpolation:sRGB;color-interpolation-filters:linearRGB;solid-color:#000000;solid-opacity:1;vector-effect:none;fill:#d0e2ee;fill-opacity:1;fill-rule:evenodd;stroke:none;stroke-width:0.434202;stroke-linecap:round;stroke-linejoin:round;stroke-miterlimit:1.55263;stroke-dasharray:none;stroke-dashoffset:0;stroke-opacity:1;color-rendering:auto;image-rendering:auto;shape-rendering:auto;text-rendering:auto;enable-background:accumulate;stop-color:#000000" />
        <path
           id="path1878"
           d="m -54.625,313.87695 a 0.26460996,0.26460996 0 0 0 -0.265625,0.26367 l -0.0098,1.04688 a 0.26460996,0.26460996 0 0 0 0.263672,0.26758 h 2.105469 c 0.209078,0 0.408864,-0.0826 0.556641,-0.23047 0.147757,-0.14775 0.230468,-0.34981 0.230468,-0.55859 0,-0.20879 -0.08262,-0.40874 -0.230468,-0.55664 -0.147942,-0.14801 -0.347894,-0.23243 -0.556641,-0.23243 z"
           style="color:#000000;font-style:normal;font-variant:normal;font-weight:normal;font-stretch:normal;font-size:medium;line-height:normal;font-family:sans-serif;font-variant-ligatures:normal;font-variant-position:normal;font-variant-caps:normal;font-variant-numeric:normal;font-variant-alternates:normal;font-variant-east-asian:normal;font-feature-settings:normal;font-variation-settings:normal;text-indent:0;text-align:start;text-decoration:none;text-decoration-line:none;text-decoration-style:solid;text-decoration-color:#000000;letter-spacing:normal;word-spacing:normal;text-transform:none;writing-mode:lr-tb;direction:ltr;text-orientation:mixed;dominant-baseline:auto;baseline-shift:baseline;text-anchor:start;white-space:normal;shape-padding:0;shape-margin:0;inline-size:0;clip-rule:evenodd;display:inline;overflow:visible;visibility:visible;isolation:auto;mix-blend-mode:normal;color-interpolation:sRGB;color-interpolation-filters:linearRGB;solid-color:#000000;solid-opacity:1;vector-effect:none;fill:#a8c2e1;fill-opacity:1;fill-rule:evenodd;stroke:none;stroke-width:0.434202;stroke-linecap:round;stroke-linejoin:round;stroke-miterlimit:1.55263;stroke-dasharray:none;stroke-dashoffset:0;stroke-opacity:1;color-rendering:auto;image-rendering:auto;shape-rendering:auto;text-rendering:auto;enable-background:accumulate;stop-color:#000000" />
        <path
           id="path1676"
           d="m -58.40625,313.87695 c -0.207866,0 -0.409046,0.0838 -0.556641,0.23047 -0.148349,0.14795 -0.232421,0.34981 -0.232421,0.5586 0,0.20878 0.0843,0.41082 0.232421,0.55859 0.147453,0.14675 0.348137,0.23047 0.556641,0.23047 h 2.103516 a 0.26460996,0.26460996 0 0 0 0.265625,-0.26758 l -0.01172,-1.04688 a 0.26460996,0.26460996 0 0 0 -0.263672,-0.26367 z"
           style="color:#000000;font-style:normal;font-variant:normal;font-weight:normal;font-stretch:normal;font-size:medium;line-height:normal;font-family:sans-serif;font-variant-ligatures:normal;font-variant-position:normal;font-variant-caps:normal;font-variant-numeric:normal;font-variant-alternates:normal;font-variant-east-asian:normal;font-feature-settings:normal;font-variation-settings:normal;text-indent:0;text-align:start;text-decoration:none;text-decoration-line:none;text-decoration-style:solid;text-decoration-color:#000000;letter-spacing:normal;word-spacing:normal;text-transform:none;writing-mode:lr-tb;direction:ltr;text-orientation:mixed;dominant-baseline:auto;baseline-shift:baseline;text-anchor:start;white-space:normal;shape-padding:0;shape-margin:0;inline-size:0;clip-rule:evenodd;display:inline;overflow:visible;visibility:visible;isolation:auto;mix-blend-mode:normal;color-interpolation:sRGB;color-interpolation-filters:linearRGB;solid-color:#000000;solid-opacity:1;vector-effect:none;fill:#a8c2e1;fill-opacity:1;fill-rule:evenodd;stroke:none;stroke-width:0.434202;stroke-linecap:round;stroke-linejoin:round;stroke-miterlimit:1.55263;stroke-dasharray:none;stroke-dashoffset:0;stroke-opacity:1;color-rendering:auto;image-rendering:auto;shape-rendering:auto;text-rendering:auto;enable-background:accumulate;stop-color:#000000" />
        <path
           d="m -56.361909,313.877 a 0.26460996,0.26460996 0 0 1 0.265617,0.26355 l 0.0098,1.04696 a 0.26460996,0.26460996 0 0 1 -0.263551,0.26769 h -0.797367 l -0.0072,-0.78548 a 0.26460996,0.26460996 0 0 0 -0.265618,-0.26355 h -1.775084 c 0.03866,-0.11021 0.0986,-0.21227 0.182933,-0.29662 0.147942,-0.14802 0.347808,-0.23255 0.556556,-0.23255 z"
           style="color:#000000;font-style:normal;font-variant:normal;font-weight:normal;font-stretch:normal;font-size:medium;line-height:normal;font-family:sans-serif;font-variant-ligatures:normal;font-variant-position:normal;font-variant-caps:normal;font-variant-numeric:normal;font-variant-alternates:normal;font-variant-east-asian:normal;font-feature-settings:normal;font-variation-settings:normal;text-indent:0;text-align:start;text-decoration:none;text-decoration-line:none;text-decoration-style:solid;text-decoration-color:#000000;letter-spacing:normal;word-spacing:normal;text-transform:none;writing-mode:lr-tb;direction:ltr;text-orientation:mixed;dominant-baseline:auto;baseline-shift:baseline;text-anchor:start;white-space:normal;shape-padding:0;shape-margin:0;inline-size:0;clip-rule:evenodd;display:inline;overflow:visible;visibility:visible;isolation:auto;mix-blend-mode:normal;color-interpolation:sRGB;color-interpolation-filters:linearRGB;solid-color:#000000;solid-opacity:1;vector-effect:none;fill:#91a9d9;fill-opacity:1;fill-rule:evenodd;stroke:none;stroke-width:0.434202;stroke-linecap:round;stroke-linejoin:round;stroke-miterlimit:1.55263;stroke-dasharray:none;stroke-dashoffset:0;stroke-opacity:1;color-rendering:auto;image-rendering:auto;shape-rendering:auto;text-rendering:auto;enable-background:accumulate;stop-color:#000000"
           id="path685" />
        <path
           id="path680"
           style="color:#000000;font-style:normal;font-variant:normal;font-weight:normal;font-stretch:normal;font-size:medium;line-height:normal;font-family:sans-serif;font-variant-ligatures:normal;font-variant-position:normal;font-variant-caps:normal;font-variant-numeric:normal;font-variant-alternates:normal;font-variant-east-asian:normal;font-feature-settings:normal;font-variation-settings:normal;text-indent:0;text-align:start;text-decoration:none;text-decoration-line:none;text-decoration-style:solid;text-decoration-color:#000000;letter-spacing:normal;word-spacing:normal;text-transform:none;writing-mode:lr-tb;direction:ltr;text-orientation:mixed;dominant-baseline:auto;baseline-shift:baseline;text-anchor:start;white-space:normal;shape-padding:0;shape-margin:0;inline-size:0;clip-rule:evenodd;display:inline;overflow:visible;visibility:visible;isolation:auto;mix-blend-mode:normal;color-interpolation:sRGB;color-interpolation-filters:linearRGB;solid-color:#000000;solid-opacity:1;vector-effect:none;fill:#91a9d9;fill-opacity:1;fill-rule:evenodd;stroke:none;stroke-width:0.434202;stroke-linecap:round;stroke-linejoin:round;stroke-miterlimit:1.55263;stroke-dasharray:none;stroke-dashoffset:0;stroke-opacity:1;color-rendering:auto;image-rendering:auto;shape-rendering:auto;text-rendering:auto;enable-background:accumulate;stop-color:#000000"
           d="m -54.625091,313.877 a 0.26460996,0.26460996 0 0 0 -0.265617,0.26355 l -0.0098,1.04696 a 0.26460996,0.26460996 0 0 0 0.263551,0.26769 h 0.797367 l 0.0072,-0.78548 a 0.26460996,0.26460996 0 0 1 0.265618,-0.26355 h 1.775084 c -0.03866,-0.11021 -0.0986,-0.21227 -0.182933,-0.29662 -0.147942,-0.14802 -0.347808,-0.23255 -0.556556,-0.23255 z" />
        <path
           sodipodi:nodetypes="scscs"
           id="path1462"
           d="m -56.722656,314.6582 c 2e-6,-0.68891 0.564992,-1.2539 1.253906,-1.2539 0.688914,0 1.253904,0.56499 1.253906,1.2539 5e-6,0.68892 -0.564987,1.25196 -1.253906,1.25196 -0.688919,0 -1.253911,-0.56304 -1.253906,-1.25196 z"
           style="color:#000000;font-style:normal;font-variant:normal;font-weight:normal;font-stretch:normal;font-size:medium;line-height:normal;font-family:sans-serif;font-variant-ligatures:normal;font-variant-position:normal;font-variant-caps:normal;font-variant-numeric:normal;font-variant-alternates:normal;font-variant-east-asian:normal;font-feature-settings:normal;font-variation-settings:normal;text-indent:0;text-align:start;text-decoration:none;text-decoration-line:none;text-decoration-style:solid;text-decoration-color:#000000;letter-spacing:normal;word-spacing:normal;text-transform:none;writing-mode:lr-tb;direction:ltr;text-orientation:mixed;dominant-baseline:auto;baseline-shift:baseline;text-anchor:start;white-space:normal;shape-padding:0;shape-margin:0;inline-size:0;clip-rule:evenodd;display:inline;overflow:visible;visibility:visible;isolation:auto;mix-blend-mode:normal;color-interpolation:sRGB;color-interpolation-filters:linearRGB;solid-color:#000000;solid-opacity:1;vector-effect:none;fill:#3a4d5c;fill-opacity:1;fill-rule:evenodd;stroke:none;stroke-width:0.434202;stroke-linecap:round;stroke-linejoin:round;stroke-miterlimit:1.55263;stroke-dasharray:none;stroke-dashoffset:0;stroke-opacity:1;color-rendering:auto;image-rendering:auto;shape-rendering:auto;text-rendering:auto;enable-background:accumulate;stop-color:#000000" />
        <path
           id="path1682"
           d="m -60.240234,324.83398 c -0.419134,0 -0.765625,0.3465 -0.765625,0.76563 v 0.36914 c 0,0.41913 0.346491,0.76367 0.765625,0.76367 h 6.267578 c 0.419134,0 0.765625,-0.34454 0.765625,-0.76367 v -0.36914 c 0,-0.41913 -0.346491,-0.76563 -0.765625,-0.76563 z"
           style="color:#000000;font-style:normal;font-variant:normal;font-weight:normal;font-stretch:normal;font-size:medium;line-height:normal;font-family:sans-serif;font-variant-ligatures:normal;font-variant-position:normal;font-variant-caps:normal;font-variant-numeric:normal;font-variant-alternates:normal;font-variant-east-asian:normal;font-feature-settings:normal;font-variation-settings:normal;text-indent:0;text-align:start;text-decoration:none;text-decoration-line:none;text-decoration-style:solid;text-decoration-color:#000000;letter-spacing:normal;word-spacing:normal;text-transform:none;writing-mode:lr-tb;direction:ltr;text-orientation:mixed;dominant-baseline:auto;baseline-shift:baseline;text-anchor:start;white-space:normal;shape-padding:0;shape-margin:0;inline-size:0;clip-rule:evenodd;display:inline;overflow:visible;visibility:visible;isolation:auto;mix-blend-mode:normal;color-interpolation:sRGB;color-interpolation-filters:linearRGB;solid-color:#000000;solid-opacity:1;vector-effect:none;fill:#d0e2ee;fill-opacity:1;fill-rule:evenodd;stroke:none;stroke-width:0.434202;stroke-linecap:round;stroke-linejoin:round;stroke-miterlimit:1.55263;stroke-dasharray:none;stroke-dashoffset:0;stroke-opacity:1;color-rendering:auto;image-rendering:auto;shape-rendering:auto;text-rendering:auto;enable-background:accumulate;stop-color:#000000" />
        <path
           id="path656"
           style="color:#000000;font-style:normal;font-variant:normal;font-weight:normal;font-stretch:normal;font-size:medium;line-height:normal;font-family:sans-serif;font-variant-ligatures:normal;font-variant-position:normal;font-variant-caps:normal;font-variant-numeric:normal;font-variant-alternates:normal;font-variant-east-asian:normal;font-feature-settings:normal;font-variation-settings:normal;text-indent:0;text-align:start;text-decoration:none;text-decoration-line:none;text-decoration-style:solid;text-decoration-color:#000000;letter-spacing:normal;word-spacing:normal;text-transform:none;writing-mode:lr-tb;direction:ltr;text-orientation:mixed;dominant-baseline:auto;baseline-shift:baseline;text-anchor:start;white-space:normal;shape-padding:0;shape-margin:0;inline-size:0;clip-rule:evenodd;display:inline;overflow:visible;visibility:visible;isolation:auto;mix-blend-mode:normal;color-interpolation:sRGB;color-interpolation-filters:linearRGB;solid-color:#000000;solid-opacity:1;vector-effect:none;fill:#a8c2e1;fill-opacity:1;fill-rule:evenodd;stroke:none;stroke-width:0.434202;stroke-linecap:round;stroke-linejoin:round;stroke-miterlimit:1.55263;stroke-dasharray:none;stroke-dashoffset:0;stroke-opacity:1;color-rendering:auto;image-rendering:auto;shape-rendering:auto;text-rendering:auto;enable-background:accumulate;stop-color:#000000"
           d="m -51.093525,311.33969 c -0.348591,0 -0.644287,0.23985 -0.734838,0.5612 0.06589,-0.0187 0.134197,-0.032 0.205672,-0.032 h 6.255432 c 0.419135,0 0.765845,0.34463 0.765845,0.76377 v 0.36897 c 0,0.0713 -0.01282,0.13942 -0.03152,0.20516 0.320771,-0.0912 0.56069,-0.38648 0.56069,-0.73432 v -0.36898 c 0,-0.41914 -0.34671,-0.76377 -0.765845,-0.76377 z" />
        <path
           id="path675"
           style="color:#000000;font-style:normal;font-variant:normal;font-weight:normal;font-stretch:normal;font-size:medium;line-height:normal;font-family:sans-serif;font-variant-ligatures:normal;font-variant-position:normal;font-variant-caps:normal;font-variant-numeric:normal;font-variant-alternates:normal;font-variant-east-asian:normal;font-feature-settings:normal;font-variation-settings:normal;text-indent:0;text-align:start;text-decoration:none;text-decoration-line:none;text-decoration-style:solid;text-decoration-color:#000000;letter-spacing:normal;word-spacing:normal;text-transform:none;writing-mode:lr-tb;direction:ltr;text-orientation:mixed;dominant-baseline:auto;baseline-shift:baseline;text-anchor:start;white-space:normal;shape-padding:0;shape-margin:0;inline-size:0;clip-rule:evenodd;display:inline;overflow:visible;visibility:visible;isolation:auto;mix-blend-mode:normal;color-interpolation:sRGB;color-interpolation-filters:linearRGB;solid-color:#000000;solid-opacity:1;vector-effect:none;fill:#143441;fill-opacity:1;fill-rule:evenodd;stroke:none;stroke-width:0.434202;stroke-linecap:round;stroke-linejoin:round;stroke-miterlimit:1.55263;stroke-dasharray:none;stroke-dashoffset:0;stroke-opacity:1;color-rendering:auto;image-rendering:auto;shape-rendering:auto;text-rendering:auto;enable-background:accumulate;stop-color:#000000"
           d="m -55.468966,313.40416 c -0.48037,0 -0.895543,0.27761 -1.105876,0.67748 0.173725,-0.0915 0.367953,-0.14831 0.576709,-0.14831 0.688915,0 1.254184,0.56527 1.254186,1.25418 3e-6,0.20788 -0.05651,0.40118 -0.147277,0.57413 0.3992,-0.20998 0.676447,-0.62342 0.676444,-1.10329 -3e-6,-0.68891 -0.565272,-1.25419 -1.254186,-1.25419 z" />
      </g>
      <path
         transform="matrix(0.26458334,0,0,0.26458334,0,280.06666)"
         d="m -192.58594,116.16797 c -0.54961,0.002 -0.99422,0.44647 -0.99609,0.99609 v 1.08203 c -1.36293,0.22872 -2.42188,1.41507 -2.42188,2.83789 v 1.39454 c 0,1.42279 1.05893,2.61774 2.42188,2.84765 v 1.07227 c 0.002,0.54958 0.4465,0.99615 0.99609,0.99804 0.55248,0.002 1.002,-0.44555 1.00391,-0.99804 v -1.02539 h 1.37305 v 11.55273 c 0,0.69967 -0.54839,1.24805 -1.24805,1.24805 h -14.20899 c -1.00655,0 -2.00039,0.10055 -2.98242,0.25586 v -3.07031 c 1.04644,-0.2271 1.95249,-0.81196 2.61719,-1.60743 h 7.48828 c 0.79022,0 1.54499,-0.31221 2.10352,-0.87109 0.55845,-0.55843 0.87109,-1.32224 0.87109,-2.11133 0,-0.78913 -0.3123,-1.54452 -0.87109,-2.10351 -0.55915,-0.55941 -1.31455,-0.87891 -2.10352,-0.87891 h -7.43555 C -206.84753,126.70815 -208.16225,126 -209.64648,126 c -1.48399,0 -2.79884,0.70846 -3.66993,1.78711 h -7.43164 c -0.78563,0 -1.54567,0.31675 -2.10351,0.87109 -0.56069,0.55918 -0.87891,1.3222 -0.87891,2.11133 0,0.78909 0.31908,1.55283 0.87891,2.11133 0.5573,0.55465 1.31547,0.87109 2.10351,0.87109 h 3.72071 c 0.54959,-0.002 0.9942,-0.44651 0.99609,-0.99609 0.002,-0.55249 -0.44361,-1.00202 -0.99609,-1.00391 h -3.72071 c -0.25957,0 -0.50914,-0.10462 -0.69336,-0.28906 -0.18421,-0.18368 -0.28906,-0.4325 -0.28906,-0.69336 0,-0.26079 0.10572,-0.5105 0.28906,-0.69336 0.1835,-0.18368 0.43233,-0.28906 0.69336,-0.28906 h 6.46094 c 0,0 0,0.002 0,0.002 -0.0635,0.30758 -0.0976,0.62571 -0.0977,0.95117 -1e-5,2.25906 1.60829,4.15538 3.73438,4.61915 v 3.49609 c -3.192,0.86286 -6.13974,2.5277 -8.51758,4.90625 -3.57926,3.57925 -5.58789,8.44007 -5.58789,13.50195 v 11.93555 h -1.45508 v -1.02539 c -0.002,-0.54958 -0.4465,-0.99616 -0.99609,-0.99805 -0.55248,-0.002 -1.002,0.44556 -1.00391,0.99805 v 1.08008 c -1.33421,0.25424 -2.36328,1.43771 -2.36328,2.83984 v 1.39453 c 0,1.40213 1.02907,2.57912 2.36328,2.83203 v 1.08789 c 0.002,0.55249 0.45143,0.99829 1.00391,0.9961 0.54959,-0.002 0.9942,-0.44652 0.99609,-0.9961 v -1.0332 h 9.54492 v 1.0332 c 0.002,0.54958 0.4465,0.99421 0.9961,0.9961 0.55247,0.002 1.002,-0.44361 1.0039,-0.9961 v -1.0332 h 8.88086 v 1.0332 c 0.002,0.54958 0.4465,0.99421 0.9961,0.9961 0.55247,0.002 1.002,-0.44361 1.0039,-0.9961 v -1.05468 c 1.48864,-0.10848 2.6875,-1.35139 2.6875,-2.86524 v -1.39453 c 0,-1.51385 -1.19886,-2.76397 -2.6875,-2.87305 v -1.04687 c -0.002,-0.55249 -0.45143,-1.00024 -1.0039,-0.99805 -0.5496,0.002 -0.9942,0.44847 -0.9961,0.99805 v 1.02539 h -1.1289 v -11.93555 c 0,-0.33071 0.12786,-0.65326 0.36133,-0.88672 0.23346,-0.23357 0.55469,-0.36133 0.88671,-0.36133 h 14.20899 c 10.53047,0 19.08984,-8.55936 19.08984,-19.08984 V 125.3731 h 1.37305 v 1.02539 c 0.002,0.55249 0.45143,1.00024 1.00391,0.99804 0.54959,-0.002 0.9942,-0.44846 0.99609,-0.99804 v -1.07227 c 1.36295,-0.22991 2.42187,-1.42486 2.42187,-2.84765 v -1.39454 c 0,-1.42282 -1.05894,-2.60917 -2.42187,-2.83789 v -1.08203 c -0.002,-0.54962 -0.44649,-0.9942 -0.99609,-0.99609 -0.5525,-0.002 -1.00203,0.4436 -1.00391,0.99609 v 1.03321 h -9.29297 v -1.03321 c -0.002,-0.54962 -0.44844,-0.9942 -0.99805,-0.99609 -0.55249,-0.002 -1.00202,0.4436 -1.0039,0.99609 v 1.03321 h -9.29297 v -1.03321 c -0.002,-0.55249 -0.45142,-0.99828 -1.00391,-0.99609 z m -0.52344,4.03125 h 23.64258 c 0.50325,0 0.89453,0.38148 0.89453,0.88476 v 1.39454 c 0,0.50324 -0.39128,0.89453 -0.89453,0.89453 h -23.64258 c -0.50324,0 -0.89453,-0.39129 -0.89453,-0.89453 v -1.39454 c 0,-0.50328 0.39129,-0.88476 0.89453,-0.88476 z m 4.9004,5.17383 h 5.91992 v 1.02539 c 0.002,0.55249 0.45143,1.00024 1.0039,0.99804 0.5496,-0.002 0.99616,-0.44846 0.99805,-0.99804 v -1.02539 h 5.91992 v 11.55273 c 0,9.44954 -7.64031,17.08984 -17.08984,17.08984 h -4.50977 v -13.84179 h 4.50977 c 1.78033,0 3.24805,-1.46774 3.24805,-3.24805 z m -21.4375,2.6289 c 1.52288,0 2.73241,1.21544 2.73242,2.73828 1e-5,1.52293 -1.20952,2.73047 -2.73242,2.73047 -1.52291,0 -2.7383,-1.20754 -2.73829,-2.73047 1e-5,-1.52288 1.2154,-2.73828 2.73829,-2.73828 z m 4.63671,1.78516 h 6.4668 c 0.26105,0 0.50269,0.10613 0.68555,0.28906 0.18319,0.18331 0.28906,0.4325 0.28906,0.69336 0,0.26079 -0.10549,0.50979 -0.28906,0.69336 -0.18346,0.18369 -0.42577,0.28906 -0.68555,0.28906 h -6.48633 c 0.072,-0.32685 0.11524,-0.66396 0.11524,-1.01172 0,-0.32546 -0.0324,-0.64554 -0.0957,-0.95312 z m -0.65625,10.38672 h 7.69922 v 13.84179 h -7.69922 c -0.85997,0 -1.68831,0.34248 -2.29687,0.95118 -0.60855,0.60854 -0.95117,1.43745 -0.95117,2.29687 v 3.57227 h -13.8418 v -3.57227 c 0,-4.53211 1.79917,-8.8812 5.00391,-12.08594 3.20465,-3.2056 7.55263,-5.0039 12.08593,-5.0039 z m -17.08984,22.66211 h 13.8418 v 6.36328 h -5.75196 v -1.02539 c -0.002,-0.55249 -0.45143,-1.00024 -1.0039,-0.99805 -0.5496,0.002 -0.9942,0.44847 -0.9961,0.99805 v 1.02539 h -6.08984 z m -4.92383,8.36328 h 23.68946 c 0.50324,0 0.89257,0.39129 0.89257,0.89453 v 1.39453 c 0,0.50325 -0.38933,0.88477 -0.89257,0.88477 h -23.68946 c -0.50325,0 -0.89258,-0.38152 -0.89258,-0.88477 v -1.39453 c 0,-0.50324 0.38933,-0.89453 0.89258,-0.89453 z"
         style="color:#000000;font-style:normal;font-variant:normal;font-weight:normal;font-stretch:normal;font-size:medium;line-height:normal;font-family:sans-serif;font-variant-ligatures:normal;font-variant-position:normal;font-variant-caps:normal;font-variant-numeric:normal;font-variant-alternates:normal;font-variant-east-asian:normal;font-feature-settings:normal;font-variation-settings:normal;text-indent:0;text-align:start;text-decoration:none;text-decoration-line:none;text-decoration-style:solid;text-decoration-color:#000000;letter-spacing:normal;word-spacing:normal;text-transform:none;writing-mode:lr-tb;direction:ltr;text-orientation:mixed;dominant-baseline:auto;baseline-shift:baseline;text-anchor:start;white-space:normal;shape-padding:0;shape-margin:0;inline-size:0;clip-rule:evenodd;display:inline;overflow:visible;visibility:visible;opacity:1;isolation:auto;mix-blend-mode:normal;color-interpolation:sRGB;color-interpolation-filters:linearRGB;solid-color:#000000;solid-opacity:1;vector-effect:none;fill:#000000;fill-opacity:1;fill-rule:evenodd;stroke:none;stroke-width:1.64108;stroke-linecap:round;stroke-linejoin:round;stroke-miterlimit:1.55263;stroke-dasharray:none;stroke-dashoffset:0;stroke-opacity:1;color-rendering:auto;image-rendering:auto;shape-rendering:auto;text-rendering:auto;enable-background:accumulate;stop-color:#000000;stop-opacity:1"
         id="path1699" />
    </g>
  </g>
</svg>
