<?xml version="1.0" encoding="utf-8"?>
<!-- Uploaded to: SVG Repo, www.svgrepo.com, Generator: SVG Repo Mixer Tools -->
<svg width="800px" height="800px" viewBox="0 0 1024 1024" class="icon"  version="1.1" xmlns="http://www.w3.org/2000/svg"><path d="M528.208105 111.118179c-229.506967 0-415.5756 186.068632-415.5756 415.575599 0 229.511063 186.067608 415.5756 415.5756 415.5756s415.5756-186.064537 415.575599-415.5756c0-229.506967-186.068632-415.5756-415.575599-415.575599z m-192.950166 221.036364c6.137169-4.740589 14.578079-4.51431 20.453133 0L557.232182 485.495704c1.918761 1.459037 3.118755 2.951861 4.418065 4.414994 9.997216 9.122818 16.427216 22.14152 16.427216 36.78308 0 27.564017-22.338106 49.869359-49.869358 49.869359-15.715616 0-29.546259-7.400643-38.701842-18.763723-0.7116-0.781225-1.622858-1.463132-2.269953-2.274049L332.205737 355.659878c-5.647751-7.337162-4.28496-17.85656 3.052202-23.505335z m192.950166 576.383957c-211.132321 0-382.329019-171.196698-382.329019-382.329019 0-105.583055 42.791239-201.164798 111.979266-270.383542l23.634345 23.634345c-63.213656 63.247444-102.368055 150.51831-102.368055 246.749197 0 192.461772 156.588926 349.083463 349.083463 349.083462s349.083463-156.62169 349.083462-349.083462c0-186.879549-147.725151-339.475323-332.460684-348.238758v131.944007h-33.245557V144.268514c5.518742-0.226279 11.037484-0.389076 16.622779-0.389076 211.132321 0 382.329019 171.163934 382.329019 382.329019 0.001024 211.132321-171.196698 382.330043-382.329019 382.330043z" fill="#98C4D8" /><path d="M494.962548 77.872622c-229.506967 0-415.5756 186.068632-415.575599 415.5756 0 229.511063 186.067608 415.5756 415.575599 415.575599s415.5756-186.064537 415.5756-415.575599c0-229.507991-186.068632-415.5756-415.5756-415.5756z m-192.950165 221.036364c6.137169-4.740589 14.578079-4.515334 20.453133 0l201.521109 153.341162c1.918761 1.459037 3.118755 2.951861 4.418066 4.414994 9.997216 9.122818 16.427216 22.14152 16.427216 36.78308 0 27.564017-22.338106 49.869359-49.869359 49.869358-15.715616 0-29.546259-7.400643-38.701841-18.763722-0.7116-0.781225-1.622858-1.463132-2.269954-2.274049L298.96018 322.414322c-5.647751-7.338186-4.28496-17.85656 3.052203-23.505336zM494.962548 875.291919c-211.132321 0-382.329019-171.196698-382.329019-382.329019 0-105.583055 42.791239-201.164798 111.979266-270.383541l23.634345 23.634345c-63.213656 63.247444-102.368055 150.51831-102.368054 246.749196 0 192.461772 156.588926 349.083463 349.083462 349.083463s349.083463-156.62169 349.083463-349.083463c0-186.879549-147.725151-339.475323-332.460685-348.238757V276.667125h-33.245556V111.021934c5.518742-0.226279 11.037484-0.389076 16.622778-0.389077 211.132321 0 382.329019 171.163934 382.329019 382.329019 0 211.133345-171.196698 382.330043-382.329019 382.330043z" fill="#EFD9A0" /><path d="M284.948529 279.973126a29.910762 63.559729 55.515 1 0 104.781321-71.973825 29.910762 63.559729 55.515 1 0-104.781321 71.973825Z" fill="#FEFEFE" /><path d="M220.720779 384.570689a19.940167 34.895036 55.515 1 0 57.526172-39.514473 19.940167 34.895036 55.515 1 0-57.526172 39.514473Z" fill="#FEFEFE" /></svg>